name Walk8.mot
datacolumns 19
datarows 15
range 1.16000000 1.17400000
endheader

                time	   L_ground_force_vx	   L_ground_force_vy	   L_ground_force_vz	   L_ground_force_px	   L_ground_force_py	   L_ground_force_pz	   R_ground_force_vx	   R_ground_force_vy	   R_ground_force_vz	   R_ground_force_px	   R_ground_force_py	   R_ground_force_pz	   L_ground_torque_x	   L_ground_torque_y	   L_ground_torque_z	   R_ground_torque_x	   R_ground_torque_y	   R_ground_torque_z	
          1.16000000	          0.13389012	         68.53741576	         -5.88494841	          0.00184038	          0.00000000	          0.00220867	          0.00000000	         -0.00000002	          0.00000000	         -0.00000000	          0.00000000	         -0.00000000	          0.00000000	          0.12552410	          0.00000000	          0.00000000	         -0.00000000	          0.00000000	
          1.16100000	         -0.16526455	         74.12819255	         -6.42671695	         -0.01063575	          0.00000000	          0.00099554	          0.00000000	         -0.00000002	          0.00000000	         -0.00000000	          0.00000000	         -0.00000000	          0.00000000	          0.13895015	          0.00000000	          0.00000000	         -0.00000000	          0.00000000	
          1.16200000	         -0.50443905	         79.88135127	         -6.98133118	         -0.02307246	          0.00000000	         -0.00021141	          0.00000000	         -0.00000002	          0.00000000	         -0.00000000	          0.00000000	         -0.00000000	          0.00000000	          0.15316677	          0.00000000	          0.00000000	          0.00000000	          0.00000000	
          1.16300000	         -0.88567671	         85.78930717	         -7.54792757	         -0.03543931	          0.00000000	         -0.00140924	          0.00000000	         -0.00000002	          0.00000000	         -0.00000000	          0.00000000	         -0.00000000	          0.00000000	          0.16818621	          0.00000000	          0.00000000	          0.00000000	          0.00000000	
          1.16400000	         -1.31101268	         91.84322761	         -8.12553356	         -0.04770551	          0.00000000	         -0.00259500	          0.00000000	         -0.00000002	          0.00000000	         -0.00000000	          0.00000000	         -0.00000000	          0.00000000	          0.18401834	          0.00000000	          0.00000000	          0.00000000	          0.00000000	
          1.16500000	         -1.78246791	         98.03294002	         -8.71305868	         -0.05983970	          0.00000000	         -0.00376572	          0.00000001	         -0.00000003	          0.00000000	         -0.00000000	          0.00000000	         -0.00000000	          0.00000000	          0.20067040	          0.00000000	          0.00000000	          0.00000000	          0.00000000	
          1.16600000	         -2.30203929	        104.34685040	         -9.30928839	         -0.07181010	          0.00000000	         -0.00491845	          0.00000001	         -0.00000003	          0.00000000	         -0.00000000	          0.00000000	         -0.00000000	          0.00000000	          0.21814671	          0.00000000	          0.00000000	          0.00000000	          0.00000000	
          1.16700000	         -2.87167730	        110.77191142	         -9.91288740	         -0.08358542	          0.00000000	         -0.00605029	          0.00000001	         -0.00000003	          0.00000000	         -0.00000000	          0.00000000	         -0.00000000	          0.00000000	          0.23644832	          0.00000000	          0.00000000	          0.00000000	          0.00000000	
          1.16800000	         -3.49324882	        117.29367184	        -10.52241426	         -0.09513650	          0.00000000	         -0.00715863	          0.00000001	         -0.00000003	          0.00000000	         -0.00000000	          0.00000000	         -0.00000000	          0.00000000	          0.25557266	          0.00000000	          0.00000000	          0.00000000	          0.00000000	
          1.16900000	         -4.16849317	        123.89640580	        -11.13633915	         -0.10643724	          0.00000000	         -0.00824118	          0.00000001	         -0.00000003	          0.00000000	         -0.00000000	          0.00000000	         -0.00000000	          0.00000000	          0.27551326	          0.00000000	          0.00000000	          0.00000000	          0.00000000	
          1.17000000	         -4.89897628	        130.56332390	        -11.75305975	         -0.11746469	          0.00000000	         -0.00929602	          0.00000001	         -0.00000004	          0.00000000	         -0.00000000	          0.00000000	         -0.00000000	          0.00000000	          0.29625988	          0.00000000	          0.00000000	          0.00000000	          0.00000000	
          1.17100000	         -5.68604079	        137.27688334	        -12.37091652	         -0.12819892	          0.00000000	         -0.01032152	          0.00000001	         -0.00000004	          0.00000000	         -0.00000000	          0.00000000	         -0.00000000	          0.00000000	          0.31779861	          0.00000000	          0.00000000	          0.00000000	          0.00000000	
          1.17200000	         -6.53075077	        144.01920004	        -12.98820879	         -0.13862277	          0.00000000	         -0.01131633	          0.00000001	         -0.00000004	          0.00000000	         -0.00000000	          0.00000000	         -0.00000000	          0.00000000	          0.34011223	          0.00000000	          0.00000000	          0.00000000	          0.00000000	
          1.17300000	         -7.43383387	        150.77253728	        -13.60321155	         -0.14872173	          0.00000000	         -0.01227937	          0.00000001	         -0.00000004	          0.00000000	         -0.00000000	          0.00000000	         -0.00000000	          0.00000000	          0.36318057	          0.00000000	          0.00000000	          0.00000000	          0.00000000	
          1.17400000	         -8.39562524	        157.51981967	        -14.21419293	         -0.15848376	          0.00000000	         -0.01320977	          0.00000001	         -0.00000005	          0.00000000	         -0.00000000	          0.00000000	         -0.00000000	          0.00000000	          0.38698099	          0.00000000	          0.00000000	          0.00000000	          0.00000000	
